<svg xmlns="http://www.w3.org/2000/svg" width="500" height="500" stroke="#000" xmlns:v="https://vecta.io/nano"><path vector-effect="non-scaling-stroke" transform="translate(149.008 274.003)" d="M-112.065 20.441c125.668-91.984 224.13 0 224.13 0" fill="#765222"/><g fill="#8fcf40"><path vector-effect="non-scaling-stroke" transform="matrix(1 0 0 .998592 151.844134 201.876086)" d="M0 51.86V-51.86"/><path vector-effect="non-scaling-stroke" transform="matrix(1 0 0 1.033331 209.331714 163.075289)" d="M55.517-12.923c-107.53 58.3-116.757.462-116.757.462"/><path vector-effect="non-scaling-stroke" transform="matrix(.91 0 0 .91 98.165323 139.090761)" d="M-57.825 14.513c98.461-51.822 114.817-1.31 114.817-1.31"/><path vector-effect="non-scaling-stroke" transform="matrix(.91 0 0 .91 94.689249 163.227541)" d="M61.796-14.374c-107.53 58.3-116.111 2.288-116.111 2.288"/><path vector-effect="non-scaling-stroke" transform="translate(208.72 138.434)" d="M-59.653 12.049c98.462-51.822 115.541-.639 115.541-.639"/><path d="M147.877 150.378h3.843v103.267h-3.843z" stroke-miterlimit="1" stroke-width="0" stroke-dashoffset="-50px"/></g><path vector-effect="non-scaling-stroke" transform="translate(149.008 294.443)" d="M-112.565 0h225.13" fill="#fff" fill-opacity="0"/><path vector-effect="non-scaling-stroke" transform="matrix(1 0 0 .990288 147.727282 202.175693)" d="M0 51.86V-51.86" fill="#8fcf40"/></svg>